<svg xmlns="http://www.w3.org/2000/svg" xmlns:xlink="http://www.w3.org/1999/xlink" width="180" zoomAndPan="magnify" viewBox="0 0 135 135.000003" height="180" preserveAspectRatio="xMidYMid meet" version="1.2"><defs><clipPath id="ea806c4c03"><path d="M 66.3125 47.820312 L 78 47.820312 L 78 76 L 66.3125 76 Z M 66.3125 47.820312 "/></clipPath><clipPath id="ce39084412"><path d="M 69 56 L 134.503906 56 L 134.503906 130.449219 L 69 130.449219 Z M 69 56 "/></clipPath><clipPath id="99a2fd3ae8"><path d="M 0.707031 89 L 64 89 L 64 130.449219 L 0.707031 130.449219 Z M 0.707031 89 "/></clipPath><clipPath id="9ff001379a"><path d="M 56.261719 47.820312 L 67 47.820312 L 67 75 L 56.261719 75 Z M 56.261719 47.820312 "/></clipPath></defs><g id="abc9a4355c"><g clip-rule="nonzero" clip-path="url(#ea806c4c03)"><path style=" stroke:none;fill-rule:nonzero;fill:#57a641;fill-opacity:1;" d="M 76.546875 69.371094 L 74.519531 65.347656 L 73.488281 63.34375 L 73.230469 62.851562 L 72.996094 62.34375 L 72.527344 61.324219 L 71.578125 59.289062 C 71.261719 58.613281 70.917969 57.9375 70.632812 57.253906 L 69.753906 55.199219 C 69.609375 54.855469 69.453125 54.515625 69.316406 54.179688 L 68.925781 53.1875 L 66.804688 47.871094 L 66.804688 63.605469 C 66.855469 63.695312 66.898438 63.796875 66.9375 63.898438 L 67.425781 64.964844 L 67.667969 65.5 L 67.925781 66.023438 L 68.984375 68.121094 L 71.128906 72.277344 L 72.851562 75.507812 C 74.117188 74.429688 75.382812 73.4375 76.554688 72.519531 C 76.9375 72.226562 77.332031 71.933594 77.726562 71.640625 C 77.332031 70.875 76.929688 70.113281 76.539062 69.371094 "/></g><g clip-rule="nonzero" clip-path="url(#ce39084412)"><path style=" stroke:none;fill-rule:nonzero;fill:#57a641;fill-opacity:1;" d="M 128.875 90.0625 L 127.8125 90.1875 C 127.457031 90.230469 127.066406 90.253906 126.707031 90.296875 L 124.476562 90.496094 C 123.742188 90.570312 122.976562 90.582031 122.234375 90.628906 L 119.980469 90.773438 L 118.859375 90.839844 L 118.296875 90.871094 L 117.734375 90.890625 L 115.472656 90.929688 L 110.960938 91.054688 C 109.425781 91.074219 107.835938 91.089844 106.269531 91.164062 C 104.703125 91.238281 103.121094 91.324219 101.527344 91.480469 C 99.945312 91.640625 98.355469 91.839844 96.761719 92.117188 C 95.976562 92.242188 95.171875 92.40625 94.386719 92.574219 L 93.203125 92.859375 C 92.808594 92.949219 92.417969 93.050781 92.023438 93.175781 C 90.449219 93.59375 88.890625 94.136719 87.367188 94.777344 L 86.234375 95.277344 C 85.859375 95.453125 85.492188 95.644531 85.121094 95.839844 L 84.5625 96.113281 L 84.015625 96.429688 C 83.65625 96.648438 83.296875 96.839844 82.945312 97.074219 C 81.539062 97.976562 80.199219 99 78.984375 100.144531 L 78.105469 101.046875 C 77.960938 101.195312 77.808594 101.339844 77.675781 101.503906 L 77.273438 101.980469 C 77.214844 102.054688 77.15625 102.125 77.097656 102.199219 L 77.097656 102.214844 C 77.105469 102.617188 77.074219 102.972656 77.046875 103.300781 C 77.039062 103.410156 77.03125 103.515625 77.023438 103.625 L 77.023438 103.699219 C 76.996094 103.824219 76.996094 103.949219 76.980469 104.066406 C 76.964844 104.359375 76.9375 104.695312 76.871094 105.0625 L 76.839844 105.3125 C 76.722656 106.0625 76.597656 106.832031 76.386719 107.632812 C 76.160156 108.632812 75.859375 109.59375 75.53125 110.476562 C 75.699219 110.175781 75.882812 109.886719 76.058594 109.585938 C 76.410156 108.949219 76.847656 108.375 77.25 107.78125 C 77.441406 107.480469 77.691406 107.222656 77.910156 106.9375 C 78.136719 106.664062 78.347656 106.378906 78.597656 106.128906 C 79.535156 105.070312 80.589844 104.144531 81.695312 103.292969 C 82.828125 102.472656 84.007812 101.730469 85.265625 101.105469 C 86.539062 100.511719 87.820312 99.945312 89.175781 99.519531 C 90.53125 99.101562 91.90625 98.71875 93.320312 98.441406 C 94.726562 98.148438 96.167969 97.941406 97.617188 97.757812 C 99.066406 97.574219 100.53125 97.472656 102.007812 97.390625 C 103.480469 97.300781 104.972656 97.257812 106.460938 97.230469 L 110.984375 97.214844 L 115.675781 97.132812 L 118.019531 97.066406 L 118.605469 97.046875 L 119.191406 97.007812 L 120.363281 96.921875 L 120.691406 96.898438 C 120.625 96.980469 120.558594 97.074219 120.492188 97.15625 L 119.417969 98.550781 L 119.074219 99.027344 L 117.726562 100.9375 L 115.0625 104.792969 L 112.558594 108.535156 C 111.714844 109.761719 110.859375 110.980469 109.972656 112.148438 C 109.082031 113.332031 108.1875 114.492188 107.234375 115.59375 C 106.285156 116.703125 105.316406 117.773438 104.292969 118.78125 C 103.289062 119.808594 102.207031 120.734375 101.101562 121.636719 C 100.003906 122.53125 98.824219 123.289062 97.617188 124.015625 C 96.410156 124.71875 95.140625 125.292969 93.824219 125.777344 C 92.507812 126.226562 91.144531 126.585938 89.746094 126.785156 C 89.394531 126.863281 89.042969 126.871094 88.679688 126.914062 C 88.328125 126.9375 87.976562 126.996094 87.617188 126.996094 C 86.90625 126.996094 86.175781 127.046875 85.457031 126.996094 C 85.097656 126.96875 84.738281 126.96875 84.367188 126.9375 L 83.28125 126.804688 L 82.726562 126.746094 L 82.183594 126.644531 L 81.085938 126.445312 C 80.355469 126.292969 79.636719 126.09375 78.898438 125.917969 L 76.730469 125.25 L 74.578125 124.464844 C 73.875 124.167969 73.164062 123.875 72.441406 123.582031 C 73.042969 124.058594 73.671875 124.515625 74.300781 124.976562 C 74.945312 125.417969 75.597656 125.84375 76.253906 126.261719 C 76.929688 126.652344 77.617188 127.027344 78.3125 127.414062 C 79.023438 127.738281 79.738281 128.105469 80.472656 128.398438 C 81.957031 128.972656 83.480469 129.507812 85.089844 129.808594 C 85.882812 130 86.695312 130.09375 87.515625 130.191406 C 87.925781 130.25 88.339844 130.242188 88.75 130.277344 C 89.160156 130.292969 89.578125 130.335938 89.996094 130.308594 L 91.246094 130.277344 C 91.65625 130.25 92.074219 130.191406 92.484375 130.152344 L 93.105469 130.082031 C 93.3125 130.058594 93.515625 130.007812 93.722656 129.976562 L 94.953125 129.742188 C 96.585938 129.359375 98.179688 128.816406 99.710938 128.140625 C 100.097656 127.972656 100.464844 127.78125 100.832031 127.597656 L 101.394531 127.3125 L 101.941406 127.011719 C 102.300781 126.804688 102.667969 126.613281 103.019531 126.386719 L 104.066406 125.71875 C 105.441406 124.808594 106.753906 123.808594 107.976562 122.730469 C 108.296875 122.472656 108.589844 122.195312 108.890625 121.921875 L 109.777344 121.09375 C 110.355469 120.535156 110.933594 119.960938 111.480469 119.375 C 112.585938 118.207031 113.632812 116.996094 114.636719 115.769531 C 115.640625 114.535156 116.578125 113.273438 117.507812 111.996094 C 118.4375 110.738281 119.328125 109.425781 120.179688 108.15625 L 122.769531 104.476562 L 124.050781 102.625 L 124.367188 102.15625 L 124.710938 101.707031 L 125.390625 100.8125 L 126.746094 99.019531 C 127.199219 98.425781 127.625 97.800781 128.09375 97.222656 L 129.492188 95.480469 C 129.730469 95.195312 129.964844 94.886719 130.1875 94.621094 L 130.882812 93.800781 L 134.585938 89.429688 L 128.882812 90.085938 Z M 74.609375 84.585938 C 75.683594 83.601562 76.820312 82.675781 77.976562 81.757812 C 79.132812 80.832031 80.324219 79.945312 81.527344 79.070312 L 85.207031 76.457031 L 88.992188 73.695312 L 90.867188 72.292969 L 91.335938 71.941406 L 91.796875 71.574219 L 92.703125 70.832031 C 92.785156 70.765625 92.871094 70.699219 92.953125 70.632812 C 92.953125 70.742188 92.945312 70.847656 92.9375 70.957031 L 92.894531 72.132812 L 92.871094 72.71875 L 92.871094 75.640625 C 92.871094 75.640625 92.917969 79.371094 92.917969 79.371094 C 93.019531 79.335938 93.121094 79.296875 93.222656 79.261719 C 94.726562 78.753906 96.226562 78.3125 97.769531 77.859375 L 99.066406 77.449219 L 99.066406 75.625 C 99.066406 75.625 99.035156 73.378906 99.035156 73.378906 L 99.035156 72.820312 C 99.035156 72.820312 99.042969 72.257812 99.042969 72.257812 L 99.082031 71.140625 L 99.152344 68.894531 C 99.175781 68.144531 99.167969 67.394531 99.21875 66.660156 L 99.351562 64.429688 C 99.375 64.0625 99.394531 63.679688 99.417969 63.328125 L 99.511719 62.261719 L 100.003906 56.558594 L 95.726562 60.375 L 94.921875 61.082031 C 94.652344 61.324219 94.359375 61.566406 94.074219 61.800781 L 92.367188 63.246094 C 91.804688 63.730469 91.195312 64.171875 90.609375 64.648438 L 88.847656 66.050781 L 87.96875 66.75 L 87.527344 67.109375 L 87.074219 67.445312 L 85.257812 68.769531 L 81.636719 71.464844 C 80.390625 72.359375 79.101562 73.285156 77.859375 74.246094 C 76.621094 75.214844 75.382812 76.191406 74.167969 77.226562 C 72.96875 78.269531 71.789062 79.347656 70.648438 80.480469 C 70.105469 81.015625 69.578125 81.566406 69.058594 82.125 C 69.21875 82.308594 69.375 82.5 69.535156 82.699219 C 70.539062 83.910156 71.503906 85.246094 72.410156 86.65625 C 73.113281 85.957031 73.839844 85.273438 74.585938 84.605469 Z M 93.933594 81.324219 C 92.433594 81.824219 90.941406 82.332031 89.460938 82.917969 C 87.976562 83.511719 86.511719 84.128906 85.054688 84.828125 C 84.328125 85.171875 83.605469 85.546875 82.894531 85.921875 L 81.832031 86.523438 C 81.480469 86.714844 81.128906 86.925781 80.773438 87.140625 C 79.375 87.976562 78.027344 88.925781 76.738281 89.945312 L 75.785156 90.738281 C 75.515625 90.972656 75.246094 91.214844 74.988281 91.457031 C 75.011719 91.515625 75.039062 91.574219 75.054688 91.625 C 75.707031 93.226562 76.210938 94.863281 76.5625 96.480469 C 77.574219 95.597656 78.621094 94.746094 79.761719 93.992188 C 80.953125 93.226562 82.164062 92.476562 83.457031 91.824219 C 84.726562 91.15625 86.042969 90.5625 87.390625 89.996094 C 88.730469 89.429688 90.113281 88.917969 91.511719 88.445312 C 92.902344 87.949219 94.316406 87.5 95.75 87.074219 L 100.089844 85.832031 L 104.578125 84.460938 L 106.8125 83.761719 L 107.375 83.585938 L 107.929688 83.386719 L 109.035156 82.984375 C 109.132812 82.941406 109.234375 82.910156 109.335938 82.867188 C 109.292969 82.96875 109.257812 83.066406 109.21875 83.167969 L 108.78125 84.261719 L 108.5625 84.804688 L 108.371094 85.355469 L 107.601562 87.566406 L 107.140625 88.9375 C 108.398438 88.894531 109.644531 88.886719 110.917969 88.867188 L 113.722656 88.792969 L 114.167969 87.46875 L 114.351562 86.933594 L 114.550781 86.40625 L 115.765625 83.261719 C 116.035156 82.566406 116.277344 81.851562 116.570312 81.164062 L 117.433594 79.113281 C 117.574219 78.769531 117.71875 78.417969 117.871094 78.09375 L 118.3125 77.117188 L 120.667969 71.890625 L 115.363281 74.085938 L 114.367188 74.496094 C 114.042969 74.628906 113.683594 74.761719 113.339844 74.898438 L 111.253906 75.699219 C 110.566406 75.972656 109.835938 76.191406 109.132812 76.441406 L 107.007812 77.191406 L 105.941406 77.566406 L 105.40625 77.75 L 104.863281 77.917969 L 102.703125 78.570312 L 98.398438 79.929688 C 96.914062 80.363281 95.398438 80.804688 93.917969 81.308594 "/></g><g clip-rule="nonzero" clip-path="url(#99a2fd3ae8)"><path style=" stroke:none;fill-rule:nonzero;fill:#41733f;fill-opacity:1;" d="M 33.347656 126.988281 C 32.984375 126.777344 32.609375 126.585938 32.265625 126.363281 L 31.21875 125.695312 C 29.84375 124.785156 28.53125 123.78125 27.316406 122.707031 C 26.996094 122.445312 26.695312 122.171875 26.402344 121.894531 L 25.507812 121.070312 C 24.929688 120.511719 24.351562 119.933594 23.808594 119.351562 C 22.703125 118.183594 21.65625 116.972656 20.648438 115.746094 C 19.644531 114.507812 18.707031 113.25 17.777344 111.972656 C 16.847656 110.710938 15.960938 109.402344 15.105469 108.132812 L 12.515625 104.453125 L 11.234375 102.597656 L 10.917969 102.132812 L 9.894531 100.789062 L 8.539062 98.992188 C 8.085938 98.402344 7.660156 97.773438 7.191406 97.199219 L 5.792969 95.453125 C 5.558594 95.171875 5.324219 94.863281 5.097656 94.59375 L 4.410156 93.777344 L 0.707031 89.402344 L 6.410156 90.0625 L 7.484375 90.1875 C 7.835938 90.230469 8.21875 90.253906 8.589844 90.296875 L 10.816406 90.496094 C 11.5625 90.570312 12.316406 90.582031 13.0625 90.628906 L 15.304688 90.773438 L 16.996094 90.878906 L 17.558594 90.898438 L 19.8125 90.9375 L 24.324219 91.0625 C 25.867188 91.082031 27.449219 91.097656 29.015625 91.171875 C 30.589844 91.246094 32.171875 91.332031 33.757812 91.488281 C 35.339844 91.648438 36.929688 91.847656 38.523438 92.125 C 39.308594 92.25 40.113281 92.417969 40.902344 92.582031 L 42.089844 92.867188 C 42.484375 92.957031 42.878906 93.058594 43.269531 93.183594 C 44.84375 93.601562 46.402344 94.144531 47.925781 94.785156 L 49.058594 95.289062 C 49.433594 95.460938 49.804688 95.65625 50.171875 95.847656 L 50.726562 96.121094 L 51.269531 96.4375 C 51.628906 96.65625 51.988281 96.847656 52.339844 97.082031 C 53.75 97.984375 55.078125 99.011719 56.304688 100.152344 L 57.175781 101.054688 C 57.316406 101.207031 57.46875 101.347656 57.609375 101.515625 L 58.011719 101.988281 C 58.28125 102.316406 58.554688 102.625 58.796875 102.957031 L 59.511719 103.976562 C 59.761719 104.308594 59.953125 104.675781 60.171875 105.027344 C 60.375 105.386719 60.609375 105.730469 60.785156 106.097656 C 61.144531 106.839844 61.519531 107.566406 61.796875 108.324219 C 62.433594 109.820312 62.828125 111.386719 63.164062 112.941406 C 63.320312 113.714844 63.40625 114.507812 63.53125 115.285156 C 63.597656 116.070312 63.664062 116.855469 63.707031 117.632812 C 63.722656 118.414062 63.722656 119.191406 63.707031 119.96875 C 63.664062 120.746094 63.621094 121.511719 63.5625 122.28125 C 63.40625 121.519531 63.261719 120.769531 63.121094 120.019531 L 62.585938 117.796875 L 61.949219 115.628906 C 61.6875 114.925781 61.453125 114.21875 61.175781 113.523438 L 60.742188 112.507812 L 60.515625 111.996094 L 60.265625 111.503906 L 59.769531 110.527344 C 59.601562 110.203125 59.402344 109.902344 59.21875 109.585938 C 58.867188 108.949219 58.429688 108.375 58.027344 107.78125 C 57.835938 107.480469 57.585938 107.222656 57.375 106.9375 C 57.140625 106.664062 56.9375 106.378906 56.6875 106.128906 C 55.75 105.070312 54.695312 104.144531 53.597656 103.292969 C 52.46875 102.472656 51.277344 101.730469 50.03125 101.105469 C 48.757812 100.511719 47.46875 99.945312 46.109375 99.519531 C 44.761719 99.101562 43.378906 98.71875 41.964844 98.441406 C 40.558594 98.148438 39.117188 97.941406 37.667969 97.757812 C 36.226562 97.582031 34.753906 97.472656 33.277344 97.390625 C 31.804688 97.300781 30.3125 97.257812 28.824219 97.230469 L 24.308594 97.214844 L 19.621094 97.132812 L 17.273438 97.066406 L 16.6875 97.046875 L 16.101562 97.007812 L 14.929688 96.921875 C 14.820312 96.914062 14.710938 96.90625 14.601562 96.898438 C 14.667969 96.980469 14.738281 97.074219 14.796875 97.15625 L 15.515625 98.082031 L 15.875 98.550781 L 16.210938 99.027344 L 17.558594 100.9375 L 20.222656 104.792969 L 22.726562 108.535156 C 23.574219 109.761719 24.425781 110.980469 25.3125 112.148438 C 26.195312 113.332031 27.097656 114.492188 28.042969 115.59375 C 28.992188 116.703125 29.960938 117.773438 30.984375 118.78125 C 31.996094 119.808594 33.070312 120.734375 34.175781 121.636719 C 35.28125 122.53125 36.453125 123.289062 37.660156 124.015625 C 38.875 124.71875 40.148438 125.292969 41.453125 125.777344 C 42.777344 126.226562 44.132812 126.585938 45.539062 126.785156 C 45.890625 126.863281 46.242188 126.871094 46.597656 126.914062 C 46.957031 126.9375 47.308594 126.996094 47.667969 126.996094 C 48.378906 126.996094 49.101562 127.046875 49.828125 126.996094 C 50.1875 126.96875 50.558594 126.96875 50.917969 126.9375 L 52.007812 126.804688 L 52.558594 126.746094 L 53.101562 126.644531 L 54.199219 126.445312 C 54.921875 126.292969 55.648438 126.09375 56.386719 125.917969 L 58.554688 125.25 L 60.707031 124.464844 C 61.410156 124.167969 62.125 123.875 62.84375 123.582031 C 62.242188 124.058594 61.613281 124.515625 60.992188 124.976562 C 60.347656 125.417969 59.695312 125.84375 59.03125 126.261719 C 58.355469 126.652344 57.667969 127.027344 56.972656 127.414062 C 56.261719 127.738281 55.550781 128.105469 54.8125 128.398438 C 53.328125 128.972656 51.804688 129.507812 50.199219 129.808594 C 49.410156 130 48.589844 130.09375 47.777344 130.191406 C 47.367188 130.25 46.957031 130.242188 46.546875 130.277344 C 46.136719 130.292969 45.714844 130.335938 45.304688 130.308594 L 44.058594 130.277344 C 43.640625 130.25 43.230469 130.191406 42.808594 130.152344 L 42.191406 130.082031 C 41.980469 130.058594 41.78125 130.007812 41.578125 129.976562 L 40.339844 129.742188 C 38.714844 129.359375 37.113281 128.816406 35.582031 128.140625 C 35.195312 127.972656 34.828125 127.78125 34.453125 127.597656 L 33.890625 127.3125 L 33.347656 127.011719 "/></g><path style=" stroke:none;fill-rule:nonzero;fill:#41733f;fill-opacity:1;" d="M 68.171875 106.746094 C 68.121094 105.9375 67.953125 105.136719 67.808594 104.328125 C 67.742188 103.917969 67.617188 103.535156 67.515625 103.125 C 67.410156 102.734375 67.324219 102.324219 67.175781 101.929688 L 66.773438 100.753906 C 66.621094 100.363281 66.445312 99.988281 66.277344 99.601562 L 66.019531 99.035156 C 65.933594 98.84375 65.824219 98.667969 65.734375 98.476562 L 65.140625 97.375 C 64.277344 95.9375 63.28125 94.585938 62.175781 93.335938 C 61.898438 93.027344 61.605469 92.734375 61.3125 92.425781 L 60.875 91.972656 L 60.414062 91.546875 C 60.113281 91.273438 59.8125 90.980469 59.492188 90.714844 L 58.539062 89.921875 C 57.25 88.894531 55.902344 87.949219 54.503906 87.117188 C 54.160156 86.898438 53.808594 86.691406 53.445312 86.5 L 52.382812 85.898438 C 51.671875 85.523438 50.949219 85.148438 50.222656 84.804688 C 48.773438 84.101562 47.300781 83.484375 45.816406 82.894531 C 44.335938 82.316406 42.835938 81.800781 41.34375 81.300781 C 39.855469 80.796875 38.339844 80.347656 36.863281 79.921875 L 32.558594 78.5625 L 30.398438 77.910156 L 29.855469 77.742188 L 29.324219 77.558594 L 26.136719 76.433594 C 25.433594 76.183594 24.710938 75.964844 24.015625 75.691406 L 21.929688 74.890625 C 21.585938 74.753906 21.226562 74.621094 20.902344 74.488281 L 19.914062 74.078125 L 14.609375 71.882812 L 16.964844 77.109375 L 17.40625 78.085938 C 17.558594 78.410156 17.691406 78.761719 17.84375 79.105469 L 18.707031 81.15625 C 19 81.839844 19.242188 82.558594 19.511719 83.25 L 20.726562 86.398438 L 20.925781 86.925781 L 21.101562 87.457031 L 21.554688 88.785156 L 24.351562 88.859375 C 25.625 88.878906 26.871094 88.886719 28.128906 88.925781 L 27.667969 87.558594 L 26.898438 85.347656 L 26.703125 84.796875 L 26.488281 84.253906 L 26.050781 83.160156 C 26.007812 83.058594 25.96875 82.960938 25.925781 82.859375 C 26.027344 82.902344 26.125 82.933594 26.226562 82.976562 L 27.332031 83.378906 L 27.886719 83.578125 L 28.445312 83.753906 L 30.683594 84.453125 L 35.171875 85.824219 L 39.511719 87.066406 C 40.941406 87.5 42.367188 87.941406 43.75 88.433594 C 45.148438 88.917969 46.527344 89.421875 47.867188 89.988281 C 49.207031 90.554688 50.53125 91.148438 51.804688 91.816406 C 53.09375 92.464844 54.300781 93.21875 55.5 93.984375 C 56.6875 94.761719 57.769531 95.65625 58.824219 96.574219 C 59.855469 97.515625 60.785156 98.550781 61.65625 99.652344 C 62.484375 100.769531 63.246094 101.957031 63.855469 103.226562 C 64.03125 103.535156 64.152344 103.867188 64.292969 104.191406 C 64.425781 104.527344 64.585938 104.84375 64.695312 105.179688 C 64.914062 105.855469 65.179688 106.53125 65.339844 107.230469 C 65.421875 107.582031 65.53125 107.933594 65.609375 108.28125 L 65.808594 109.359375 L 65.917969 109.902344 L 65.984375 110.453125 L 66.128906 111.554688 C 66.203125 112.296875 66.234375 113.039062 66.285156 113.792969 L 66.304688 116.054688 L 66.210938 118.332031 C 66.144531 119.089844 66.066406 119.859375 66.007812 120.636719 C 66.277344 119.917969 66.539062 119.183594 66.789062 118.449219 C 67.015625 117.707031 67.222656 116.953125 67.433594 116.203125 C 67.601562 115.445312 67.761719 114.675781 67.910156 113.898438 C 68.003906 113.117188 68.144531 112.332031 68.203125 111.546875 C 68.3125 109.960938 68.355469 108.351562 68.164062 106.738281 "/><path style=" stroke:none;fill-rule:nonzero;fill:#41733f;fill-opacity:1;" d="M 74.835938 99.710938 L 74.785156 99.09375 C 74.769531 98.886719 74.726562 98.683594 74.703125 98.476562 L 74.511719 97.242188 C 74.175781 95.605469 73.679688 93.992188 73.054688 92.457031 C 72.894531 92.074219 72.71875 91.699219 72.550781 91.316406 L 72.28125 90.746094 L 71.988281 90.195312 C 71.796875 89.828125 71.605469 89.453125 71.402344 89.101562 L 70.757812 88.042969 C 69.886719 86.648438 68.925781 85.304688 67.886719 84.0625 C 67.625 83.746094 67.375 83.425781 67.097656 83.125 L 66.292969 82.21875 C 65.75 81.625 65.1875 81.03125 64.621094 80.480469 C 63.480469 79.347656 62.300781 78.269531 61.09375 77.226562 C 59.886719 76.191406 58.648438 75.214844 57.398438 74.246094 C 56.160156 73.285156 54.871094 72.359375 53.621094 71.464844 L 50.003906 68.769531 L 48.1875 67.445312 L 47.734375 67.109375 L 47.292969 66.75 L 46.410156 66.050781 L 44.652344 64.648438 C 44.066406 64.179688 43.457031 63.738281 42.902344 63.246094 L 41.195312 61.800781 C 40.917969 61.558594 40.617188 61.316406 40.347656 61.082031 L 39.550781 60.375 L 35.273438 56.558594 L 35.757812 62.261719 L 35.851562 63.328125 C 35.882812 63.6875 35.902344 64.070312 35.917969 64.429688 L 36.050781 66.660156 C 36.101562 67.402344 36.09375 68.152344 36.117188 68.894531 L 36.195312 71.140625 L 36.242188 72.828125 L 36.242188 73.386719 C 36.242188 73.386719 36.210938 75.632812 36.210938 75.632812 L 36.210938 77.460938 C 36.210938 77.460938 37.507812 77.867188 37.507812 77.867188 C 39.042969 78.320312 40.550781 78.761719 42.054688 79.269531 C 42.15625 79.304688 42.257812 79.335938 42.367188 79.378906 L 42.410156 75.648438 L 42.410156 73.3125 C 42.410156 73.3125 42.410156 72.726562 42.410156 72.726562 L 42.382812 72.144531 L 42.332031 70.964844 C 42.332031 70.859375 42.324219 70.75 42.316406 70.640625 C 42.398438 70.707031 42.484375 70.773438 42.566406 70.839844 L 43.480469 71.582031 L 43.933594 71.949219 L 44.402344 72.300781 L 46.277344 73.703125 L 50.0625 76.464844 L 53.75 79.078125 C 54.953125 79.964844 56.144531 80.839844 57.292969 81.765625 C 58.445312 82.675781 59.585938 83.609375 60.667969 84.59375 C 61.746094 85.570312 62.792969 86.566406 63.78125 87.617188 C 64.777344 88.652344 65.683594 89.753906 66.546875 90.878906 C 67.410156 92 68.136719 93.199219 68.824219 94.417969 C 69.492188 95.644531 70.023438 96.933594 70.480469 98.25 C 70.882812 99.578125 71.21875 100.945312 71.371094 102.347656 C 71.4375 102.699219 71.4375 103.050781 71.460938 103.410156 C 71.480469 103.765625 71.527344 104.117188 71.511719 104.476562 C 71.496094 105.1875 71.519531 105.902344 71.445312 106.628906 C 71.410156 106.988281 71.394531 107.347656 71.351562 107.714844 L 71.117188 109.34375 L 71 109.886719 L 70.765625 110.96875 C 70.589844 111.6875 70.375 112.40625 70.179688 113.132812 L 69.445312 115.269531 L 68.589844 117.390625 C 68.269531 118.082031 67.945312 118.78125 67.644531 119.492188 C 68.136719 118.898438 68.613281 118.296875 69.101562 117.679688 C 69.5625 117.054688 70.003906 116.414062 70.449219 115.769531 C 70.859375 115.109375 71.261719 114.433594 71.664062 113.75 C 72.015625 113.046875 72.398438 112.355469 72.71875 111.621094 C 73.347656 110.167969 73.925781 108.660156 74.277344 107.074219 C 74.492188 106.289062 74.609375 105.480469 74.738281 104.667969 C 74.8125 104.269531 74.8125 103.859375 74.863281 103.441406 C 74.886719 103.03125 74.945312 102.625 74.929688 102.207031 L 74.929688 100.964844 C 74.929688 100.546875 74.878906 100.136719 74.855469 99.71875 "/><g clip-rule="nonzero" clip-path="url(#9ff001379a)"><path style=" stroke:none;fill-rule:nonzero;fill:#41733f;fill-opacity:1;" d="M 64.6875 53.1875 L 64.292969 54.179688 C 64.160156 54.515625 64.007812 54.855469 63.855469 55.199219 L 62.976562 57.253906 C 62.691406 57.9375 62.339844 58.613281 62.03125 59.289062 L 61.085938 61.324219 L 60.617188 62.34375 L 60.375 62.851562 L 60.113281 63.34375 L 59.082031 65.347656 L 57.054688 69.371094 C 56.8125 69.824219 56.578125 70.28125 56.335938 70.75 C 57.140625 71.332031 57.9375 71.917969 58.714844 72.519531 C 59.535156 73.152344 60.398438 73.828125 61.269531 74.546875 L 62.484375 72.277344 L 64.628906 68.121094 L 65.683594 66.023438 L 65.941406 65.5 L 66.1875 64.964844 L 66.671875 63.898438 C 66.714844 63.796875 66.753906 63.695312 66.804688 63.605469 L 66.804688 47.871094 L 64.6875 53.195312 "/></g></g></svg>