<?xml version="1.0" encoding="UTF-8"?><svg id="TODO" xmlns="http://www.w3.org/2000/svg" xmlns:xlink="http://www.w3.org/1999/xlink" viewBox="0 0 220.45 153.52"><defs><style>.cls-1{fill:none;}.cls-2{fill:#57a641;}.cls-3{clip-path:url(#clippath-1);}.cls-4{fill:#41733f;}.cls-5{clip-path:url(#clippath-3);}.cls-6{clip-path:url(#clippath-2);}.cls-7{clip-path:url(#clippath);}</style><clipPath id="clippath"><rect class="cls-1" x="108.58" width="14.67" height="34.49"/></clipPath><clipPath id="clippath-1"><rect class="cls-1" x="111.24" y="9.16" width="79.01" height="89.84"/></clipPath><clipPath id="clippath-2"><rect class="cls-1" x="30.25" y="49.16" width="75.66" height="49.84"/></clipPath><clipPath id="clippath-3"><rect class="cls-1" x="96.58" width="13.33" height="33.16"/></clipPath></defs><g id="INTEGRAL"><path class="cls-4" d="M113.35,143.16v10.25h-1.04v-10.25h1.04Z"/><path class="cls-4" d="M123.39,153.41h-1.02l-5.67-8.63v8.63h-1.04v-10.25h1.04l5.67,8.6v-8.6h1.02v10.25Z"/><path class="cls-4" d="M131.71,143.16v.85h-2.83v9.4h-1.04v-9.4h-2.85v-.85h6.73Z"/><path class="cls-4" d="M134.38,144v3.83h3.88v.85h-3.88v3.88h4.31v.85h-5.35v-10.27h5.35v.85h-4.31Z"/><path class="cls-4" d="M148.79,146.16c-.31-.68-.76-1.21-1.35-1.6-.6-.39-1.31-.58-2.13-.58-.77,0-1.45.18-2.06.54-.6.35-1.08.85-1.44,1.5-.35.66-.52,1.41-.52,2.27s.17,1.62.52,2.27c.36.66.84,1.16,1.44,1.52.61.35,1.3.52,2.06.52.72,0,1.36-.15,1.94-.46.57-.32,1.03-.76,1.38-1.33.34-.57.55-1.23.6-2h-4.31v-.83h5.4v.75c-.06.89-.31,1.7-.75,2.44-.43.72-1.02,1.3-1.75,1.73-.74.42-1.57.63-2.5.63s-1.81-.22-2.58-.67c-.77-.44-1.37-1.06-1.81-1.85-.45-.8-.67-1.71-.67-2.71s.22-1.92.67-2.71c.44-.8,1.05-1.43,1.81-1.88.78-.44,1.64-.67,2.58-.67,1.09,0,2.05.28,2.88.83.82.54,1.42,1.31,1.79,2.29h-1.19Z"/><path class="cls-4" d="M157.63,153.41l-2.54-4.29h-1.88v4.29h-1.04v-10.25h3.08c1.15,0,2.02.28,2.6.83.59.54.9,1.26.9,2.15,0,.74-.22,1.37-.65,1.9-.43.53-1.06.87-1.88,1.02l2.63,4.35h-1.23ZM153.21,148.29h2.06c.8,0,1.41-.19,1.81-.58.4-.39.6-.91.6-1.56s-.2-1.2-.58-1.56c-.39-.38-1.01-.56-1.85-.56h-2.04v4.27Z"/><path class="cls-4" d="M166.71,150.98h-4.65l-.9,2.44h-1.08l3.73-10.13h1.17l3.71,10.13h-1.08l-.9-2.44ZM166.42,150.12l-2.02-5.54-2.04,5.54h4.06Z"/><path class="cls-4" d="M171.37,152.58h3.67v.83h-4.71v-10.25h1.04v9.42Z"/></g><g id="ESTETICA"><path class="cls-4" d="M46.75,144v3.83h3.88v.85h-3.88v3.88h4.31v.85h-5.35v-10.27h5.35v.85h-4.31Z"/><path class="cls-4" d="M56.2,153.52c-.68,0-1.28-.11-1.79-.35-.52-.23-.92-.56-1.21-.98s-.45-.89-.48-1.42h1.1c.04.5.26.94.65,1.31.39.38.96.56,1.73.56.69,0,1.24-.17,1.65-.52.4-.36.6-.81.6-1.35,0-.44-.11-.8-.33-1.06-.22-.28-.5-.48-.83-.6-.33-.14-.8-.28-1.4-.44-.68-.18-1.22-.36-1.63-.54-.41-.18-.74-.45-1.02-.81-.28-.38-.42-.88-.42-1.52,0-.53.13-1,.4-1.42.28-.42.67-.74,1.17-.98.5-.23,1.07-.35,1.71-.35.96,0,1.72.24,2.29.71.58.46.92,1.06,1.02,1.79h-1.13c-.07-.42-.3-.78-.69-1.1-.39-.33-.92-.5-1.58-.5-.61,0-1.13.17-1.54.5-.41.32-.6.77-.6,1.33,0,.42.11.77.33,1.04.22.27.5.47.83.6.34.13.8.27,1.38.42.67.2,1.2.39,1.6.56.42.18.76.46,1.04.83.29.36.44.85.44,1.48,0,.49-.14.95-.4,1.38-.25.43-.63.78-1.13,1.04-.49.27-1.08.4-1.77.4Z"/><path class="cls-4" d="M67.46,143.16v.85h-2.83v9.4h-1.04v-9.4h-2.85v-.85h6.73Z"/><path class="cls-4" d="M70.12,144v3.83h3.88v.85h-3.88v3.88h4.31v.85h-5.35v-10.27h5.35v.85h-4.31Z"/><path class="cls-4" d="M82.45,143.16v.85h-2.83v9.4h-1.04v-9.4h-2.85v-.85h6.73Z"/><path class="cls-4" d="M85.12,143.16v10.25h-1.04v-10.25h1.04Z"/><path class="cls-4" d="M86.97,148.29c0-1.01.21-1.92.65-2.71.44-.8,1.05-1.43,1.81-1.88.76-.44,1.61-.67,2.56-.67,1.14,0,2.11.27,2.92.81.82.54,1.42,1.31,1.79,2.31h-1.19c-.31-.69-.76-1.23-1.35-1.63-.6-.4-1.32-.6-2.17-.6-.77,0-1.45.18-2.04.54-.6.35-1.07.85-1.42,1.52-.35.66-.52,1.42-.52,2.29s.17,1.63.52,2.29c.34.66.82,1.16,1.42,1.5.59.35,1.28.52,2.04.52.84,0,1.57-.19,2.17-.56.59-.39,1.05-.93,1.35-1.63h1.19c-.38.99-.97,1.75-1.79,2.29-.82.53-1.79.79-2.92.79-.95,0-1.8-.22-2.56-.67-.77-.44-1.37-1.06-1.81-1.85-.43-.79-.65-1.69-.65-2.69Z"/><path class="cls-4" d="M104.67,150.98h-4.65l-.9,2.44h-1.08l3.73-10.13h1.17l3.71,10.13h-1.08l-.9-2.44ZM104.38,150.12l-2.02-5.54-2.04,5.54h4.06Z"/></g><g id="ARMONIA"><path class="cls-4" d="M126.42,128.27h-6.58l-1.15,3.21h-2.69l5.65-15.77h3l5.63,15.77h-2.71l-1.15-3.21ZM125.71,126.15l-2.56-7.31-2.58,7.31h5.15Z"/><path class="cls-4" d="M140.9,131.48l-3.63-6.29h-1.96v6.29h-2.58v-15.75h5.44c1.21,0,2.23.22,3.06.65.84.42,1.47.98,1.88,1.69.42.71.63,1.5.63,2.38,0,1.03-.3,1.97-.9,2.81-.6.83-1.52,1.41-2.75,1.71l3.9,6.52h-3.08ZM135.32,123.13h2.85c.96,0,1.68-.24,2.17-.73.5-.48.75-1.14.75-1.96s-.24-1.46-.73-1.92c-.49-.46-1.22-.69-2.19-.69h-2.85v5.29Z"/><path class="cls-4" d="M163.64,115.73v15.75h-2.58v-10.79l-4.81,10.79h-1.79l-4.81-10.79v10.79h-2.58v-15.75h2.77l5.54,12.35,5.5-12.35h2.77Z"/><path class="cls-4" d="M174.2,131.65c-1.46,0-2.81-.34-4.04-1.02-1.22-.69-2.2-1.66-2.92-2.9-.72-1.23-1.08-2.63-1.08-4.17s.36-2.92,1.08-4.15c.72-1.22,1.69-2.17,2.92-2.85,1.23-.69,2.58-1.04,4.04-1.04s2.84.35,4.06,1.04c1.23.68,2.21,1.64,2.92,2.85.72,1.22,1.08,2.6,1.08,4.15s-.36,2.93-1.08,4.17c-.71,1.24-1.68,2.2-2.92,2.9-1.22.68-2.58,1.02-4.06,1.02ZM174.2,129.4c1.05,0,1.98-.23,2.79-.71.82-.48,1.46-1.17,1.92-2.04.46-.89.69-1.92.69-3.08s-.23-2.17-.69-3.04c-.46-.89-1.1-1.56-1.92-2.02-.81-.47-1.74-.71-2.79-.71s-1.97.24-2.79.71c-.81.46-1.44,1.14-1.9,2.02-.46.88-.69,1.89-.69,3.04s.23,2.2.69,3.08c.46.88,1.09,1.56,1.9,2.04.82.47,1.75.71,2.79.71Z"/><path class="cls-4" d="M197.74,131.48h-2.58l-7.77-11.77v11.77h-2.58v-15.77h2.58l7.77,11.73v-11.73h2.58v15.77Z"/><path class="cls-4" d="M203.72,115.73v15.75h-2.58v-15.75h2.58Z"/><path class="cls-4" d="M216.59,128.27h-6.58l-1.15,3.21h-2.69l5.65-15.77h3l5.63,15.77h-2.71l-1.15-3.21ZM215.89,126.15l-2.56-7.31-2.58,7.31h5.15Z"/></g><g id="Y"><path class="cls-4" d="M109.01,115.73l-5.21,10.04v5.71h-2.58v-5.71l-5.25-10.04h2.88l3.67,7.73,3.65-7.73h2.85Z"/></g><g id="CUERPO"><path class="cls-4" d="M0,123.56c0-1.54.36-2.92,1.08-4.15.72-1.22,1.69-2.17,2.92-2.85,1.23-.69,2.58-1.04,4.04-1.04,1.68,0,3.17.42,4.48,1.25,1.3.82,2.26,1.98,2.85,3.48h-3.1c-.42-.82-.99-1.43-1.71-1.83-.72-.42-1.56-.63-2.52-.63-1.04,0-1.97.24-2.79.71-.81.46-1.44,1.14-1.9,2.02-.46.88-.69,1.89-.69,3.04s.23,2.19.69,3.06,1.09,1.56,1.9,2.04c.82.47,1.75.71,2.79.71.96,0,1.8-.2,2.52-.6.72-.42,1.29-1.04,1.71-1.88h3.1c-.6,1.52-1.55,2.68-2.85,3.5-1.31.82-2.8,1.23-4.48,1.23-1.47,0-2.82-.34-4.04-1.02-1.22-.69-2.2-1.65-2.92-2.88-.72-1.23-1.08-2.63-1.08-4.17Z"/><path class="cls-4" d="M20.95,115.73v10.04c0,1.2.31,2.1.94,2.71.63.6,1.49.9,2.6.9s2.02-.3,2.65-.9c.63-.61.94-1.51.94-2.71v-10.04h2.58v10c0,1.28-.28,2.37-.83,3.27-.56.89-1.31,1.56-2.25,2-.93.43-1.97.65-3.1.65s-2.16-.21-3.08-.65c-.93-.44-1.67-1.11-2.21-2-.54-.9-.81-1.99-.81-3.27v-10h2.58Z"/><path class="cls-4" d="M36.6,117.81v4.63h5.44v2.1h-5.44v4.83h6.1v2.1h-8.69v-15.77h8.69v2.1h-6.1Z"/><path class="cls-4" d="M54.06,131.48l-3.63-6.29h-1.96v6.29h-2.58v-15.75h5.44c1.21,0,2.23.22,3.06.65.84.42,1.47.98,1.88,1.69.42.71.63,1.5.63,2.38,0,1.03-.3,1.97-.9,2.81-.6.83-1.52,1.41-2.75,1.71l3.9,6.52h-3.08ZM48.48,123.13h2.85c.96,0,1.68-.24,2.17-.73.5-.48.75-1.14.75-1.96s-.24-1.46-.73-1.92c-.49-.46-1.22-.69-2.19-.69h-2.85v5.29Z"/><path class="cls-4" d="M71.21,120.42c0,.81-.19,1.56-.56,2.27s-.98,1.29-1.81,1.73c-.83.45-1.9.67-3.19.67h-2.85v6.4h-2.58v-15.75h5.44c1.21,0,2.23.21,3.06.63.84.42,1.47.98,1.88,1.69.42.71.63,1.5.63,2.38ZM65.65,122.98c.97,0,1.7-.22,2.19-.67.48-.44.73-1.07.73-1.9,0-1.72-.97-2.58-2.92-2.58h-2.85v5.15h2.85Z"/><path class="cls-4" d="M80.86,131.65c-1.46,0-2.81-.34-4.04-1.02-1.22-.69-2.2-1.66-2.92-2.9-.72-1.23-1.08-2.63-1.08-4.17s.36-2.92,1.08-4.15c.72-1.22,1.69-2.17,2.92-2.85,1.23-.69,2.58-1.04,4.04-1.04s2.84.35,4.06,1.04c1.23.68,2.21,1.64,2.92,2.85.72,1.22,1.08,2.6,1.08,4.15s-.36,2.93-1.08,4.17c-.71,1.24-1.68,2.2-2.92,2.9-1.22.68-2.58,1.02-4.06,1.02ZM80.86,129.4c1.05,0,1.98-.23,2.79-.71.82-.48,1.46-1.17,1.92-2.04.46-.89.69-1.92.69-3.08s-.23-2.17-.69-3.04c-.46-.89-1.1-1.56-1.92-2.02-.81-.47-1.74-.71-2.79-.71s-1.97.24-2.79.71c-.81.46-1.44,1.14-1.9,2.02-.46.88-.69,1.89-.69,3.04s.23,2.2.69,3.08c.46.88,1.09,1.56,1.9,2.04.82.47,1.75.71,2.79.71Z"/></g><g id="LOGO"><g id="LOGO_DERECHA"><g class="cls-7"><path class="cls-2" d="M120.8,25.82l-2.42-4.82-1.23-2.4-.31-.59-.28-.61-.56-1.22-1.13-2.44c-.38-.81-.79-1.62-1.13-2.44l-1.05-2.46c-.17-.41-.36-.82-.52-1.22l-.47-1.19L109.17.06v18.85c.06.11.11.23.16.35l.58,1.28.29.64.31.63,1.26,2.51,2.56,4.98,2.06,3.87c1.51-1.29,3.02-2.48,4.42-3.58.46-.35.93-.7,1.4-1.05-.47-.92-.95-1.83-1.42-2.72"/></g><g class="cls-3"><path class="cls-2" d="M183.28,50.61l-1.27.15c-.42.05-.89.08-1.32.13l-2.66.24c-.88.09-1.79.1-2.68.16l-2.69.17-1.34.08-.67.04-.67.02-2.7.05-5.39.15c-1.83.02-3.73.04-5.6.13s-3.76.19-5.66.38c-1.89.19-3.79.43-5.69.76-.94.15-1.9.35-2.84.55l-1.41.34c-.47.11-.94.23-1.41.38-1.88.5-3.74,1.15-5.56,1.92l-1.35.6c-.45.21-.89.44-1.33.67l-.67.33-.65.38c-.43.26-.86.49-1.28.77-1.68,1.08-3.28,2.31-4.73,3.68l-1.05,1.08c-.17.18-.35.35-.51.55l-.48.57c-.07.09-.14.17-.21.26v.02c.01.48-.03.91-.06,1.3-.01.13-.02.26-.03.39v.09c-.03.15-.03.3-.05.44-.02.35-.05.75-.13,1.19l-.04.3c-.14.9-.29,1.82-.54,2.78-.27,1.2-.63,2.35-1.02,3.41.2-.36.42-.71.63-1.07.42-.76.94-1.45,1.42-2.16.23-.36.53-.67.79-1.01.27-.33.52-.67.82-.97,1.12-1.27,2.38-2.38,3.7-3.4,1.35-.98,2.76-1.87,4.26-2.62,1.52-.71,3.05-1.39,4.67-1.9,1.62-.5,3.26-.96,4.95-1.29,1.68-.35,3.4-.6,5.13-.82s3.48-.34,5.24-.44c1.76-.11,3.54-.16,5.32-.19l5.4-.02,5.6-.1,2.8-.08.7-.02.7-.05,1.4-.1.39-.03c-.08.1-.16.21-.24.31l-1.28,1.67-.41.57-1.61,2.29-3.18,4.62-2.99,4.48c-1.01,1.47-2.03,2.93-3.09,4.33-1.06,1.42-2.13,2.81-3.27,4.13-1.13,1.33-2.29,2.61-3.51,3.82-1.2,1.23-2.49,2.34-3.81,3.42-1.31,1.07-2.72,1.98-4.16,2.85-1.44.84-2.96,1.53-4.53,2.11-1.57.54-3.2.97-4.87,1.21-.42.09-.84.1-1.27.15-.42.03-.84.1-1.27.1-.85,0-1.72.06-2.58,0-.43-.03-.86-.03-1.3-.07l-1.3-.16-.66-.07-.65-.12-1.31-.24c-.87-.18-1.73-.42-2.61-.63l-2.59-.8-2.57-.94c-.84-.36-1.69-.71-2.55-1.06.72.57,1.47,1.12,2.22,1.67.77.53,1.55,1.04,2.33,1.54.81.47,1.63.92,2.46,1.38.85.39,1.7.83,2.58,1.18,1.77.69,3.59,1.33,5.51,1.69.95.23,1.92.34,2.9.46.49.07.98.06,1.47.1.49.02.99.07,1.49.04l1.49-.04c.49-.03.99-.1,1.48-.15l.74-.08c.25-.03.49-.09.74-.13l1.47-.28c1.95-.46,3.85-1.11,5.68-1.92.46-.2.9-.43,1.34-.65l.67-.34.65-.36c.43-.25.87-.48,1.29-.75l1.25-.8c1.64-1.09,3.21-2.29,4.67-3.58.38-.31.73-.64,1.09-.97l1.06-.99c.69-.67,1.38-1.36,2.03-2.06,1.32-1.4,2.57-2.85,3.77-4.32,1.2-1.48,2.32-2.99,3.43-4.52,1.11-1.51,2.17-3.08,3.19-4.6l3.09-4.41,1.53-2.22.38-.56.41-.54.81-1.07,1.62-2.15c.54-.71,1.05-1.46,1.61-2.15l1.67-2.09c.28-.34.56-.71.83-1.03l.83-.98,4.42-5.24-6.81.79ZM118.49,44.05c1.28-1.18,2.64-2.29,4.02-3.39,1.38-1.11,2.8-2.17,4.24-3.22l4.39-3.13,4.52-3.31,2.24-1.68.56-.42.55-.44,1.08-.89c.1-.08.2-.16.3-.24,0,.13-.01.26-.02.39l-.05,1.41-.03.7v3.5s.06,4.47.06,4.47c.12-.04.24-.09.36-.13,1.8-.61,3.59-1.14,5.43-1.68l1.55-.49v-2.19s-.04-2.69-.04-2.69v-.67s.01-.67.01-.67l.05-1.34.08-2.69c.03-.9.02-1.8.08-2.68l.16-2.67c.03-.44.05-.9.08-1.32l.11-1.28.59-6.83-5.11,4.57-.96.85c-.32.29-.67.58-1.01.86l-2.04,1.73c-.67.58-1.4,1.11-2.1,1.68l-2.1,1.68-1.05.84-.53.43-.54.4-2.17,1.59-4.32,3.23c-1.49,1.07-3.03,2.18-4.51,3.33-1.48,1.16-2.96,2.33-4.41,3.57-1.43,1.25-2.84,2.54-4.2,3.9-.65.64-1.28,1.3-1.9,1.97.19.22.38.45.57.69,1.2,1.45,2.35,3.05,3.43,4.74.84-.84,1.71-1.66,2.6-2.46ZM141.56,40.14c-1.79.6-3.57,1.21-5.34,1.91-1.77.71-3.52,1.45-5.26,2.29-.87.41-1.73.86-2.58,1.31l-1.27.72c-.42.23-.84.48-1.26.74-1.67,1-3.28,2.14-4.82,3.36l-1.14.95c-.32.28-.64.57-.95.86.03.07.06.14.08.2.78,1.92,1.38,3.88,1.8,5.82,1.21-1.06,2.46-2.08,3.82-2.98,1.42-.92,2.87-1.82,4.41-2.6,1.52-.8,3.09-1.51,4.7-2.19,1.6-.68,3.25-1.29,4.92-1.86,1.66-.59,3.35-1.13,5.06-1.64l5.18-1.49,5.36-1.64,2.67-.84.67-.21.66-.24,1.32-.48c.12-.05.24-.09.36-.14-.05.12-.09.24-.14.36l-.52,1.31-.26.65-.23.66-.92,2.65-.55,1.64c1.5-.05,2.99-.06,4.51-.08l3.35-.09.53-1.59.22-.64.24-.63,1.45-3.77c.32-.83.61-1.69.96-2.51l1.03-2.46c.17-.41.34-.83.52-1.22l.53-1.17,2.81-6.26-6.33,2.63-1.19.49c-.39.16-.82.32-1.23.48l-2.49.96c-.82.33-1.69.59-2.53.89l-2.54.9-1.27.45-.64.22-.65.2-2.58.78-5.14,1.63c-1.77.52-3.58,1.05-5.35,1.65"/></g></g><g id="LOGO_IZQUIERDA"><g class="cls-6"><path class="cls-4" d="M69.22,94.85c-.43-.25-.88-.48-1.29-.75l-1.25-.8c-1.64-1.09-3.21-2.29-4.66-3.58-.38-.31-.74-.64-1.09-.97l-1.07-.99c-.69-.67-1.38-1.36-2.03-2.06-1.32-1.4-2.57-2.85-3.77-4.32-1.2-1.48-2.32-2.99-3.43-4.52-1.11-1.51-2.17-3.08-3.19-4.6l-3.09-4.41-1.53-2.22-.38-.56-1.22-1.61-1.62-2.15c-.54-.71-1.05-1.46-1.61-2.15l-1.67-2.09c-.28-.34-.56-.71-.83-1.03l-.82-.98-4.42-5.24,6.81.79,1.28.15c.42.05.88.08,1.32.13l2.66.24c.89.09,1.79.1,2.68.16l2.68.17,2.02.13.67.02,2.69.05,5.39.15c1.84.02,3.73.04,5.6.13,1.88.09,3.77.19,5.66.38,1.89.19,3.79.43,5.69.76.94.15,1.9.35,2.84.55l1.42.34c.47.11.94.23,1.41.38,1.88.5,3.74,1.15,5.56,1.92l1.35.6c.45.21.89.44,1.33.67l.66.33.65.38c.43.26.86.49,1.28.77,1.68,1.08,3.27,2.31,4.73,3.68l1.04,1.08c.17.18.35.35.52.55l.48.57c.32.39.65.76.94,1.16l.85,1.22c.3.4.53.84.79,1.26.24.43.52.84.73,1.28.43.89.88,1.76,1.21,2.67.76,1.79,1.23,3.67,1.63,5.53.19.93.29,1.88.44,2.81.08.94.16,1.88.21,2.81.02.94.02,1.87,0,2.8-.05.93-.1,1.85-.17,2.77-.19-.91-.36-1.81-.53-2.71l-.64-2.66-.76-2.6c-.31-.84-.59-1.69-.92-2.52l-.52-1.22-.27-.61-.3-.59-.59-1.17c-.2-.39-.44-.75-.66-1.13-.42-.76-.94-1.45-1.42-2.16-.23-.36-.53-.67-.78-1.01-.28-.33-.52-.67-.82-.97-1.12-1.27-2.38-2.38-3.69-3.4-1.35-.98-2.77-1.87-4.26-2.62-1.52-.71-3.06-1.39-4.68-1.9-1.61-.5-3.26-.96-4.95-1.29-1.68-.35-3.4-.6-5.13-.82-1.72-.21-3.48-.34-5.24-.44-1.76-.11-3.54-.16-5.32-.19l-5.39-.02-5.6-.1-2.8-.08-.7-.02-.7-.05-1.4-.1c-.13-.01-.26-.02-.39-.03.08.1.16.21.23.31l.86,1.11.43.56.4.57,1.61,2.29,3.18,4.62,2.99,4.48c1.01,1.47,2.03,2.93,3.09,4.33,1.05,1.42,2.13,2.81,3.26,4.13,1.13,1.33,2.29,2.61,3.51,3.82,1.21,1.23,2.49,2.34,3.81,3.42,1.32,1.07,2.72,1.98,4.16,2.85,1.45.84,2.97,1.53,4.53,2.11,1.58.54,3.2.97,4.88,1.21.42.09.84.1,1.26.15.43.03.85.1,1.28.1.85,0,1.71.06,2.58,0,.43-.03.87-.03,1.3-.07l1.3-.16.66-.07.65-.12,1.31-.24c.86-.18,1.73-.42,2.61-.63l2.59-.8,2.57-.94c.84-.36,1.69-.71,2.55-1.06-.72.57-1.47,1.12-2.21,1.67-.77.53-1.55,1.04-2.34,1.54-.81.47-1.63.92-2.46,1.38-.85.39-1.7.83-2.58,1.18-1.77.69-3.59,1.33-5.51,1.69-.94.23-1.92.34-2.89.46-.49.07-.98.06-1.47.1-.49.02-.99.07-1.48.04l-1.49-.04c-.5-.03-.99-.1-1.49-.15l-.74-.08c-.25-.03-.49-.09-.73-.13l-1.48-.28c-1.94-.46-3.85-1.11-5.68-1.92-.46-.2-.9-.43-1.35-.65l-.67-.34-.65-.36"/></g><path class="cls-4" d="M110.8,70.6c-.06-.97-.26-1.93-.43-2.9-.08-.49-.23-.95-.35-1.44-.13-.47-.23-.96-.41-1.43l-.48-1.41c-.18-.47-.39-.92-.59-1.38l-.31-.68c-.1-.23-.23-.44-.34-.67l-.71-1.32c-1.03-1.72-2.22-3.34-3.54-4.84-.33-.37-.68-.72-1.03-1.09l-.52-.54-.55-.51c-.36-.33-.72-.68-1.1-1l-1.14-.95c-1.54-1.23-3.15-2.36-4.82-3.36-.41-.26-.83-.51-1.26-.74l-1.27-.72c-.85-.45-1.71-.9-2.58-1.31-1.73-.84-3.49-1.58-5.26-2.29-1.77-.69-3.56-1.31-5.34-1.91s-3.59-1.14-5.35-1.65l-5.14-1.63-2.58-.78-.65-.2-.63-.22-1.27-.45-2.54-.9c-.84-.3-1.7-.56-2.53-.89l-2.49-.96c-.41-.16-.84-.32-1.23-.48l-1.18-.49-6.33-2.63,2.81,6.26.53,1.17c.18.39.34.81.52,1.22l1.03,2.46c.35.82.64,1.68.96,2.51l1.45,3.77.24.63.21.64.54,1.59,3.34.09c1.52.02,3.01.03,4.51.08l-.55-1.64-.92-2.65-.23-.66-.26-.65-.52-1.31c-.05-.12-.1-.24-.15-.36.12.05.24.09.36.14l1.32.48.66.24.67.21,2.67.84,5.36,1.64,5.18,1.49c1.71.52,3.41,1.05,5.06,1.64,1.67.58,3.32,1.18,4.92,1.86,1.6.68,3.18,1.39,4.7,2.19,1.54.78,2.98,1.68,4.41,2.6,1.42.93,2.71,2,3.97,3.1,1.23,1.13,2.34,2.37,3.38,3.69.99,1.34,1.9,2.76,2.63,4.28.21.37.35.77.52,1.16.16.4.35.78.48,1.18.26.81.58,1.62.77,2.46.1.42.23.84.32,1.26l.24,1.29.13.65.08.66.17,1.32c.09.89.13,1.78.19,2.68l.02,2.71-.11,2.73c-.08.91-.17,1.83-.24,2.76.32-.86.63-1.74.93-2.62.27-.89.52-1.79.77-2.69.2-.91.39-1.83.57-2.76.11-.94.28-1.88.35-2.82.13-1.9.18-3.83-.05-5.76"/><path class="cls-4" d="M118.76,62.17l-.06-.74c-.02-.25-.07-.49-.1-.74l-.23-1.48c-.4-1.96-.99-3.89-1.74-5.73-.19-.46-.4-.91-.6-1.37l-.32-.68-.35-.66c-.23-.44-.46-.89-.7-1.31l-.77-1.27c-1.04-1.67-2.19-3.28-3.43-4.77-.31-.38-.61-.76-.94-1.12l-.96-1.09c-.65-.71-1.32-1.42-2-2.08-1.36-1.36-2.77-2.65-4.21-3.9-1.44-1.24-2.92-2.41-4.41-3.57-1.48-1.15-3.02-2.26-4.51-3.33l-4.32-3.23-2.17-1.59-.54-.4-.53-.43-1.05-.84-2.1-1.68c-.7-.56-1.43-1.09-2.09-1.68l-2.04-1.73c-.33-.29-.69-.58-1.01-.86l-.95-.85-5.11-4.57.58,6.83.11,1.28c.04.43.06.89.08,1.32l.16,2.67c.06.89.05,1.79.08,2.68l.09,2.69.06,2.02v.67s-.04,2.69-.04,2.69v2.19s1.55.49,1.55.49c1.83.54,3.63,1.07,5.43,1.68.12.04.24.08.37.13l.05-4.47v-2.8s0-.7,0-.7l-.03-.7-.06-1.41c0-.13-.01-.26-.02-.39.1.08.2.16.3.24l1.09.89.54.44.56.42,2.24,1.68,4.52,3.31,4.4,3.13c1.44,1.06,2.86,2.11,4.23,3.22,1.38,1.09,2.74,2.21,4.03,3.39,1.29,1.17,2.54,2.36,3.72,3.62,1.19,1.24,2.27,2.56,3.3,3.91,1.03,1.34,1.9,2.78,2.72,4.24.8,1.47,1.43,3.01,1.98,4.59.48,1.59.88,3.23,1.06,4.91.08.42.08.84.11,1.27.02.43.08.85.06,1.28-.02.85.01,1.71-.08,2.58-.04.43-.06.86-.11,1.3l-.19,1.3-.09.65-.14.65-.28,1.3c-.21.86-.47,1.72-.7,2.59l-.88,2.56-1.02,2.54c-.38.83-.77,1.67-1.13,2.52.59-.71,1.16-1.43,1.74-2.17.55-.75,1.08-1.52,1.61-2.29.49-.79.97-1.6,1.45-2.42.42-.84.88-1.67,1.26-2.55.75-1.74,1.44-3.55,1.86-5.45.26-.94.4-1.91.55-2.88.09-.48.09-.97.15-1.47.03-.49.1-.98.08-1.48v-1.49c0-.5-.06-.99-.09-1.49"/><g class="cls-5"><path class="cls-4" d="M106.64,6.43l-.47,1.19c-.16.4-.34.81-.52,1.22l-1.05,2.46c-.34.82-.76,1.63-1.13,2.44l-1.13,2.44-.56,1.22-.29.61-.31.59-1.23,2.4-2.42,4.82c-.29.54-.57,1.09-.86,1.65.96.7,1.91,1.4,2.84,2.12.98.76,2.01,1.57,3.05,2.43l1.45-2.72,2.56-4.98,1.26-2.51.31-.63.29-.64.58-1.28c.05-.12.1-.24.16-.35V.06l-2.53,6.38"/></g></g></g></svg>