<svg xmlns="http://www.w3.org/2000/svg" xmlns:xlink="http://www.w3.org/1999/xlink" width="180" zoomAndPan="magnify" viewBox="0 0 135 135.000003" height="180" preserveAspectRatio="xMidYMid meet" version="1.0"><defs><clipPath id="950d44a62c"><path d="M 66.375 30.726562 L 76 30.726562 L 76 54 L 66.375 54 Z M 66.375 30.726562 " clip-rule="nonzero"/></clipPath><clipPath id="4d55b4e7c5"><path d="M 68.183594 37 L 121.8125 37 L 121.8125 98 L 68.183594 98 Z M 68.183594 37 " clip-rule="nonzero"/></clipPath><clipPath id="0696ba22c9"><path d="M 13.207031 64.171875 L 64.5625 64.171875 L 64.5625 98 L 13.207031 98 Z M 13.207031 64.171875 " clip-rule="nonzero"/></clipPath><clipPath id="5d2efef870"><path d="M 58.230469 30.726562 L 67 30.726562 L 67 53 L 58.230469 53 Z M 58.230469 30.726562 " clip-rule="nonzero"/></clipPath></defs><g clip-path="url(#950d44a62c)"><path fill="#57a641" d="M 74.671875 48.292969 L 73.027344 45.015625 L 72.195312 43.382812 L 71.984375 42.980469 L 71.792969 42.566406 L 71.414062 41.734375 L 70.644531 40.074219 C 70.386719 39.523438 70.109375 38.972656 69.878906 38.414062 L 69.167969 36.742188 C 69.050781 36.464844 68.921875 36.183594 68.8125 35.910156 L 68.492188 35.101562 L 66.777344 30.769531 L 66.777344 43.59375 C 66.816406 43.667969 66.851562 43.75 66.886719 43.832031 L 67.277344 44.703125 L 67.476562 45.136719 L 67.6875 45.566406 L 68.542969 47.273438 L 70.28125 50.660156 L 71.675781 53.292969 C 72.703125 52.414062 73.726562 51.605469 74.679688 50.859375 C 74.992188 50.621094 75.308594 50.382812 75.628906 50.144531 C 75.308594 49.519531 74.984375 48.898438 74.664062 48.292969 " fill-opacity="1" fill-rule="nonzero"/></g><g clip-path="url(#4d55b4e7c5)"><path fill="#57a641" d="M 117.082031 65.15625 L 116.21875 65.257812 C 115.933594 65.292969 115.617188 65.3125 115.324219 65.347656 L 113.519531 65.511719 C 112.921875 65.574219 112.304688 65.578125 111.699219 65.621094 L 109.875 65.734375 L 108.964844 65.789062 L 108.507812 65.816406 L 108.054688 65.832031 L 106.222656 65.863281 L 102.5625 65.96875 C 101.320312 65.980469 100.03125 65.992188 98.761719 66.054688 C 97.492188 66.117188 96.210938 66.183594 94.917969 66.3125 C 93.636719 66.441406 92.347656 66.605469 91.058594 66.832031 C 90.417969 66.933594 89.769531 67.070312 89.128906 67.203125 L 88.171875 67.4375 C 87.851562 67.511719 87.535156 67.59375 87.214844 67.695312 C 85.9375 68.035156 84.675781 68.476562 83.441406 69 L 82.523438 69.410156 C 82.21875 69.550781 81.921875 69.707031 81.621094 69.863281 L 81.167969 70.089844 L 80.726562 70.347656 C 80.433594 70.523438 80.140625 70.679688 79.855469 70.871094 C 78.71875 71.605469 77.628906 72.441406 76.648438 73.375 L 75.933594 74.109375 C 75.820312 74.230469 75.695312 74.347656 75.585938 74.484375 L 75.261719 74.871094 C 75.214844 74.933594 75.167969 74.988281 75.121094 75.046875 L 75.121094 75.0625 C 75.125 75.390625 75.097656 75.679688 75.078125 75.945312 C 75.070312 76.035156 75.066406 76.125 75.058594 76.210938 L 75.058594 76.273438 C 75.039062 76.375 75.039062 76.476562 75.023438 76.574219 C 75.011719 76.8125 74.988281 77.082031 74.9375 77.382812 L 74.910156 77.585938 C 74.8125 78.199219 74.710938 78.824219 74.542969 79.476562 C 74.359375 80.292969 74.113281 81.074219 73.851562 81.796875 C 73.984375 81.550781 74.136719 81.3125 74.277344 81.070312 C 74.5625 80.550781 74.914062 80.082031 75.242188 79.601562 C 75.398438 79.355469 75.601562 79.144531 75.777344 78.914062 C 75.960938 78.6875 76.128906 78.457031 76.335938 78.253906 C 77.09375 77.390625 77.949219 76.632812 78.847656 75.941406 C 79.761719 75.273438 80.71875 74.667969 81.738281 74.15625 C 82.769531 73.675781 83.808594 73.210938 84.90625 72.863281 C 86.007812 72.523438 87.121094 72.210938 88.265625 71.988281 C 89.40625 71.75 90.574219 71.578125 91.75 71.429688 C 92.925781 71.28125 94.113281 71.199219 95.308594 71.128906 C 96.5 71.054688 97.710938 71.019531 98.917969 71 L 102.582031 70.988281 L 106.382812 70.917969 L 108.285156 70.863281 L 108.761719 70.851562 L 109.234375 70.816406 L 110.1875 70.75 L 110.449219 70.730469 C 110.394531 70.796875 110.34375 70.871094 110.289062 70.941406 L 109.417969 72.074219 L 109.140625 72.464844 L 108.046875 74.023438 L 105.890625 77.164062 L 103.859375 80.210938 C 103.175781 81.210938 102.480469 82.207031 101.761719 83.15625 C 101.042969 84.125 100.316406 85.070312 99.542969 85.96875 C 98.777344 86.871094 97.988281 87.742188 97.160156 88.566406 C 96.34375 89.402344 95.46875 90.15625 94.574219 90.894531 C 93.683594 91.621094 92.726562 92.238281 91.75 92.832031 C 90.773438 93.402344 89.742188 93.871094 88.675781 94.265625 C 87.609375 94.632812 86.503906 94.925781 85.367188 95.089844 C 85.085938 95.152344 84.800781 95.15625 84.507812 95.191406 C 84.222656 95.210938 83.9375 95.261719 83.644531 95.261719 C 83.066406 95.261719 82.476562 95.300781 81.894531 95.261719 C 81.601562 95.238281 81.308594 95.238281 81.011719 95.210938 L 80.128906 95.105469 L 79.679688 95.054688 L 79.238281 94.972656 L 78.351562 94.8125 C 77.757812 94.6875 77.175781 94.523438 76.578125 94.382812 L 74.820312 93.839844 L 73.074219 93.199219 C 72.503906 92.953125 71.929688 92.714844 71.34375 92.476562 C 71.832031 92.867188 72.34375 93.238281 72.851562 93.613281 C 73.375 93.972656 73.902344 94.320312 74.433594 94.660156 C 74.984375 94.980469 75.539062 95.289062 76.101562 95.601562 C 76.679688 95.867188 77.257812 96.164062 77.855469 96.402344 C 79.054688 96.871094 80.292969 97.308594 81.59375 97.550781 C 82.238281 97.710938 82.898438 97.785156 83.5625 97.867188 C 83.894531 97.914062 84.230469 97.90625 84.5625 97.933594 C 84.894531 97.945312 85.234375 97.980469 85.574219 97.960938 L 86.585938 97.933594 C 86.917969 97.914062 87.257812 97.867188 87.589844 97.832031 L 88.089844 97.777344 C 88.261719 97.757812 88.421875 97.714844 88.59375 97.6875 L 89.589844 97.5 C 90.914062 97.183594 92.203125 96.742188 93.445312 96.191406 C 93.757812 96.054688 94.058594 95.898438 94.355469 95.75 L 94.8125 95.519531 L 95.253906 95.273438 C 95.542969 95.105469 95.84375 94.945312 96.128906 94.761719 L 96.976562 94.21875 C 98.089844 93.476562 99.15625 92.660156 100.148438 91.785156 C 100.40625 91.574219 100.640625 91.347656 100.886719 91.125 L 101.605469 90.449219 C 102.074219 89.996094 102.542969 89.523438 102.984375 89.050781 C 103.878906 88.097656 104.726562 87.109375 105.542969 86.109375 C 106.359375 85.101562 107.117188 84.074219 107.871094 83.035156 C 108.625 82.007812 109.34375 80.941406 110.035156 79.90625 L 112.132812 76.90625 L 113.171875 75.394531 L 113.429688 75.015625 L 113.710938 74.648438 L 114.257812 73.917969 L 115.359375 72.457031 C 115.726562 71.972656 116.070312 71.464844 116.453125 70.996094 L 117.585938 69.574219 C 117.773438 69.339844 117.964844 69.089844 118.148438 68.871094 L 121.710938 64.640625 L 117.089844 65.179688 Z M 73.101562 60.695312 C 73.972656 59.890625 74.894531 59.136719 75.832031 58.386719 C 76.769531 57.632812 77.734375 56.914062 78.710938 56.199219 L 81.691406 54.070312 L 84.757812 51.816406 L 86.277344 50.675781 L 86.660156 50.386719 L 87.03125 50.089844 L 87.765625 49.484375 C 87.832031 49.429688 87.902344 49.375 87.96875 49.320312 C 87.96875 49.410156 87.960938 49.496094 87.957031 49.585938 L 87.921875 50.542969 L 87.902344 51.019531 L 87.902344 53.402344 C 87.902344 53.402344 87.941406 56.441406 87.941406 56.441406 C 88.023438 56.414062 88.105469 56.382812 88.1875 56.355469 C 89.40625 55.941406 90.621094 55.578125 91.871094 55.210938 L 92.925781 54.878906 L 92.925781 53.386719 C 92.925781 53.386719 92.898438 51.558594 92.898438 51.558594 L 92.898438 51.101562 C 92.898438 51.101562 92.902344 50.648438 92.902344 50.648438 L 92.9375 49.734375 L 92.992188 47.90625 C 93.011719 47.292969 93.003906 46.679688 93.046875 46.082031 L 93.15625 44.265625 C 93.175781 43.964844 93.1875 43.652344 93.210938 43.367188 L 93.285156 42.496094 L 93.683594 37.851562 L 90.214844 40.960938 L 89.5625 41.539062 C 89.347656 41.734375 89.109375 41.933594 88.878906 42.121094 L 87.492188 43.300781 C 87.039062 43.695312 86.542969 44.054688 86.066406 44.441406 L 84.644531 45.585938 L 83.929688 46.15625 L 83.570312 46.449219 L 83.203125 46.722656 L 81.730469 47.804688 L 78.796875 50 C 77.785156 50.730469 76.742188 51.484375 75.738281 52.265625 C 74.730469 53.054688 73.726562 53.851562 72.742188 54.695312 C 71.773438 55.546875 70.816406 56.421875 69.890625 57.347656 C 69.453125 57.78125 69.023438 58.230469 68.601562 58.6875 C 68.730469 58.835938 68.859375 58.992188 68.988281 59.15625 C 69.804688 60.144531 70.585938 61.230469 71.316406 62.382812 C 71.886719 61.808594 72.480469 61.253906 73.082031 60.707031 Z M 88.761719 58.035156 C 87.546875 58.441406 86.339844 58.859375 85.136719 59.335938 C 83.9375 59.816406 82.75 60.320312 81.566406 60.890625 C 80.976562 61.171875 80.394531 61.476562 79.816406 61.78125 L 78.953125 62.273438 C 78.667969 62.429688 78.382812 62.597656 78.097656 62.777344 C 76.964844 63.457031 75.871094 64.230469 74.828125 65.0625 L 74.054688 65.707031 C 73.835938 65.898438 73.617188 66.097656 73.410156 66.292969 C 73.429688 66.339844 73.449219 66.390625 73.464844 66.429688 C 73.992188 67.734375 74.398438 69.070312 74.683594 70.390625 C 75.507812 69.667969 76.355469 68.972656 77.277344 68.363281 C 78.242188 67.734375 79.226562 67.125 80.269531 66.59375 C 81.304688 66.046875 82.367188 65.566406 83.460938 65.101562 C 84.546875 64.640625 85.667969 64.226562 86.800781 63.835938 C 87.929688 63.4375 89.074219 63.070312 90.234375 62.722656 L 93.753906 61.707031 L 97.390625 60.59375 L 99.203125 60.019531 L 99.65625 59.878906 L 100.105469 59.714844 L 101 59.386719 C 101.082031 59.355469 101.164062 59.328125 101.246094 59.292969 C 101.210938 59.375 101.183594 59.457031 101.152344 59.539062 L 100.796875 60.429688 L 100.621094 60.871094 L 100.464844 61.320312 L 99.839844 63.125 L 99.46875 64.238281 C 100.484375 64.203125 101.496094 64.199219 102.527344 64.183594 L 104.804688 64.125 L 105.164062 63.042969 L 105.3125 62.605469 L 105.476562 62.179688 L 106.460938 59.613281 C 106.675781 59.046875 106.875 58.464844 107.109375 57.90625 L 107.808594 56.230469 C 107.925781 55.953125 108.042969 55.667969 108.164062 55.402344 L 108.523438 54.605469 L 110.429688 50.347656 L 106.132812 52.136719 L 105.324219 52.46875 C 105.0625 52.578125 104.769531 52.6875 104.492188 52.796875 L 102.800781 53.449219 C 102.242188 53.675781 101.652344 53.851562 101.082031 54.054688 L 99.359375 54.667969 L 98.496094 54.972656 L 98.0625 55.125 L 97.621094 55.257812 L 95.871094 55.789062 L 92.382812 56.898438 C 91.179688 57.253906 89.949219 57.613281 88.75 58.019531 " fill-opacity="1" fill-rule="nonzero"/></g><g clip-path="url(#0696ba22c9)"><path fill="#41733f" d="M 39.660156 95.253906 C 39.367188 95.082031 39.0625 94.925781 38.78125 94.742188 L 37.933594 94.199219 C 36.820312 93.457031 35.753906 92.640625 34.769531 91.761719 C 34.511719 91.550781 34.269531 91.328125 34.03125 91.101562 L 33.304688 90.429688 C 32.835938 89.972656 32.367188 89.503906 31.925781 89.027344 C 31.03125 88.078125 30.183594 87.089844 29.367188 86.089844 C 28.554688 85.082031 27.792969 84.054688 27.039062 83.015625 C 26.285156 81.988281 25.566406 80.917969 24.875 79.886719 L 22.777344 76.886719 L 21.738281 75.375 L 21.480469 74.996094 L 20.652344 73.898438 L 19.550781 72.4375 C 19.1875 71.953125 18.839844 71.441406 18.460938 70.972656 L 17.324219 69.550781 C 17.136719 69.320312 16.945312 69.070312 16.761719 68.851562 L 16.207031 68.183594 L 13.207031 64.621094 L 17.828125 65.15625 L 18.699219 65.257812 C 18.984375 65.292969 19.292969 65.3125 19.59375 65.347656 L 21.398438 65.511719 C 22.003906 65.574219 22.613281 65.578125 23.21875 65.621094 L 25.039062 65.734375 L 26.410156 65.824219 L 26.863281 65.835938 L 28.6875 65.871094 L 32.347656 65.972656 C 33.597656 65.988281 34.878906 66 36.148438 66.0625 C 37.425781 66.125 38.707031 66.191406 39.992188 66.320312 C 41.273438 66.449219 42.5625 66.613281 43.855469 66.835938 C 44.492188 66.941406 45.144531 67.074219 45.78125 67.210938 L 46.746094 67.441406 C 47.0625 67.519531 47.382812 67.601562 47.703125 67.703125 C 48.980469 68.042969 50.242188 68.484375 51.476562 69.007812 L 52.394531 69.414062 C 52.699219 69.558594 52.996094 69.714844 53.296875 69.871094 L 53.742188 70.097656 L 54.183594 70.355469 C 54.476562 70.53125 54.769531 70.6875 55.054688 70.878906 C 56.195312 71.613281 57.273438 72.449219 58.265625 73.382812 L 58.96875 74.117188 C 59.085938 74.238281 59.207031 74.355469 59.324219 74.492188 L 59.648438 74.878906 C 59.867188 75.144531 60.089844 75.394531 60.289062 75.667969 L 60.863281 76.496094 C 61.066406 76.769531 61.222656 77.070312 61.402344 77.355469 C 61.5625 77.648438 61.753906 77.925781 61.894531 78.226562 C 62.1875 78.832031 62.492188 79.421875 62.71875 80.042969 C 63.234375 81.257812 63.550781 82.539062 63.824219 83.804688 C 63.953125 84.4375 64.019531 85.082031 64.121094 85.714844 C 64.175781 86.355469 64.230469 86.996094 64.265625 87.628906 C 64.277344 88.265625 64.277344 88.898438 64.265625 89.53125 C 64.230469 90.164062 64.199219 90.789062 64.148438 91.417969 C 64.019531 90.796875 63.90625 90.183594 63.789062 89.574219 L 63.355469 87.761719 L 62.839844 85.996094 C 62.628906 85.421875 62.4375 84.84375 62.214844 84.28125 L 61.863281 83.449219 L 61.679688 83.035156 L 61.476562 82.632812 L 61.074219 81.839844 C 60.9375 81.574219 60.777344 81.328125 60.625 81.070312 C 60.339844 80.550781 59.988281 80.082031 59.664062 79.601562 C 59.507812 79.355469 59.304688 79.144531 59.132812 78.914062 C 58.945312 78.6875 58.78125 78.457031 58.578125 78.253906 C 57.816406 77.390625 56.960938 76.632812 56.070312 75.941406 C 55.15625 75.273438 54.191406 74.667969 53.179688 74.15625 C 52.148438 73.675781 51.101562 73.210938 50.003906 72.863281 C 48.910156 72.523438 47.789062 72.210938 46.644531 71.988281 C 45.503906 71.75 44.335938 71.578125 43.160156 71.429688 C 41.992188 71.285156 40.800781 71.199219 39.605469 71.128906 C 38.410156 71.054688 37.203125 71.019531 35.992188 71 L 32.335938 70.988281 L 28.53125 70.917969 L 26.632812 70.863281 L 26.15625 70.851562 L 25.683594 70.816406 L 24.730469 70.75 C 24.644531 70.742188 24.554688 70.734375 24.46875 70.730469 C 24.519531 70.796875 24.574219 70.871094 24.625 70.941406 L 25.207031 71.695312 L 25.5 72.074219 L 25.769531 72.464844 L 26.863281 74.023438 L 29.023438 77.164062 L 31.050781 80.210938 C 31.738281 81.210938 32.429688 82.207031 33.148438 83.15625 C 33.863281 84.125 34.59375 85.070312 35.363281 85.96875 C 36.128906 86.871094 36.917969 87.742188 37.746094 88.566406 C 38.566406 89.402344 39.433594 90.15625 40.332031 90.894531 C 41.226562 91.621094 42.175781 92.238281 43.15625 92.832031 C 44.140625 93.402344 45.171875 93.871094 46.230469 94.265625 C 47.300781 94.632812 48.402344 94.925781 49.542969 95.089844 C 49.828125 95.152344 50.113281 95.15625 50.398438 95.191406 C 50.6875 95.210938 50.972656 95.261719 51.265625 95.261719 C 51.84375 95.261719 52.425781 95.300781 53.015625 95.261719 C 53.308594 95.238281 53.609375 95.238281 53.898438 95.210938 L 54.78125 95.105469 L 55.230469 95.054688 L 55.671875 94.972656 L 56.5625 94.8125 C 57.144531 94.6875 57.734375 94.523438 58.332031 94.382812 L 60.089844 93.839844 L 61.835938 93.199219 C 62.40625 92.953125 62.980469 92.714844 63.566406 92.476562 C 63.078125 92.867188 62.566406 93.238281 62.066406 93.613281 C 61.542969 93.972656 61.015625 94.320312 60.476562 94.660156 C 59.925781 94.980469 59.371094 95.289062 58.808594 95.601562 C 58.230469 95.867188 57.652344 96.164062 57.054688 96.402344 C 55.855469 96.871094 54.621094 97.308594 53.316406 97.550781 C 52.679688 97.710938 52.011719 97.785156 51.355469 97.867188 C 51.023438 97.914062 50.6875 97.90625 50.355469 97.933594 C 50.023438 97.945312 49.683594 97.980469 49.351562 97.960938 L 48.339844 97.933594 C 48 97.914062 47.667969 97.867188 47.328125 97.832031 L 46.828125 97.777344 C 46.65625 97.757812 46.496094 97.714844 46.332031 97.6875 L 45.328125 97.5 C 44.011719 97.183594 42.714844 96.742188 41.472656 96.191406 C 41.160156 96.054688 40.859375 95.898438 40.554688 95.75 L 40.101562 95.519531 L 39.660156 95.273438 " fill-opacity="1" fill-rule="nonzero"/></g><path fill="#41733f" d="M 67.882812 78.757812 C 67.84375 78.097656 67.707031 77.441406 67.589844 76.785156 C 67.535156 76.449219 67.433594 76.136719 67.355469 75.804688 C 67.265625 75.484375 67.199219 75.152344 67.074219 74.832031 L 66.75 73.871094 C 66.628906 73.550781 66.484375 73.246094 66.347656 72.933594 L 66.140625 72.46875 C 66.070312 72.3125 65.984375 72.171875 65.90625 72.015625 L 65.425781 71.117188 C 64.726562 69.945312 63.917969 68.84375 63.023438 67.824219 C 62.800781 67.574219 62.5625 67.335938 62.324219 67.082031 L 61.972656 66.714844 L 61.597656 66.367188 C 61.351562 66.144531 61.109375 65.90625 60.851562 65.6875 L 60.078125 65.042969 C 59.03125 64.203125 57.9375 63.4375 56.804688 62.757812 C 56.527344 62.578125 56.242188 62.410156 55.949219 62.253906 L 55.085938 61.761719 C 54.511719 61.457031 53.925781 61.152344 53.335938 60.871094 C 52.164062 60.300781 50.96875 59.796875 49.765625 59.3125 C 48.566406 58.84375 47.347656 58.421875 46.140625 58.015625 C 44.933594 57.605469 43.703125 57.238281 42.507812 56.890625 L 39.019531 55.78125 L 37.269531 55.253906 L 36.828125 55.117188 L 36.402344 54.964844 L 35.539062 54.660156 L 33.8125 54.046875 C 33.242188 53.84375 32.660156 53.667969 32.097656 53.441406 L 30.40625 52.789062 C 30.128906 52.679688 29.835938 52.570312 29.570312 52.464844 L 28.769531 52.128906 L 24.472656 50.339844 L 26.382812 54.597656 L 26.742188 55.394531 C 26.863281 55.660156 26.972656 55.945312 27.09375 56.226562 L 27.792969 57.898438 C 28.03125 58.457031 28.226562 59.042969 28.445312 59.605469 L 29.429688 62.171875 L 29.59375 62.597656 L 29.734375 63.035156 L 30.101562 64.117188 L 32.367188 64.179688 C 33.398438 64.191406 34.410156 64.199219 35.429688 64.230469 L 35.054688 63.117188 L 34.433594 61.3125 L 34.277344 60.863281 L 34.097656 60.421875 L 33.746094 59.53125 C 33.710938 59.449219 33.679688 59.367188 33.644531 59.285156 C 33.726562 59.320312 33.808594 59.347656 33.890625 59.382812 L 34.785156 59.707031 L 35.234375 59.871094 L 35.6875 60.015625 L 37.5 60.585938 L 41.136719 61.703125 L 44.65625 62.714844 C 45.816406 63.070312 46.96875 63.429688 48.089844 63.832031 C 49.222656 64.226562 50.34375 64.632812 51.429688 65.097656 C 52.515625 65.558594 53.585938 66.042969 54.621094 66.585938 C 55.664062 67.117188 56.640625 67.730469 57.613281 68.355469 C 58.578125 68.988281 59.453125 69.714844 60.308594 70.464844 C 61.144531 71.230469 61.894531 72.074219 62.601562 72.972656 C 63.273438 73.886719 63.890625 74.851562 64.386719 75.886719 C 64.53125 76.136719 64.625 76.410156 64.742188 76.675781 C 64.847656 76.945312 64.976562 77.207031 65.066406 77.476562 C 65.242188 78.027344 65.460938 78.578125 65.589844 79.152344 C 65.65625 79.4375 65.746094 79.722656 65.804688 80.007812 L 65.96875 80.886719 L 66.058594 81.328125 L 66.113281 81.777344 L 66.226562 82.675781 C 66.289062 83.28125 66.316406 83.886719 66.355469 84.496094 L 66.371094 86.339844 L 66.292969 88.199219 C 66.242188 88.816406 66.179688 89.445312 66.132812 90.078125 C 66.347656 89.492188 66.558594 88.890625 66.761719 88.292969 C 66.945312 87.6875 67.117188 87.078125 67.285156 86.464844 C 67.421875 85.84375 67.550781 85.21875 67.671875 84.585938 C 67.746094 83.945312 67.863281 83.308594 67.910156 82.667969 C 68 81.375 68.03125 80.0625 67.875 78.75 " fill-opacity="1" fill-rule="nonzero"/><path fill="#41733f" d="M 73.285156 73.019531 L 73.246094 72.519531 C 73.230469 72.347656 73.199219 72.183594 73.179688 72.015625 L 73.023438 71.007812 C 72.75 69.675781 72.351562 68.363281 71.839844 67.109375 C 71.710938 66.796875 71.570312 66.492188 71.433594 66.179688 L 71.214844 65.714844 L 70.980469 65.265625 C 70.824219 64.96875 70.667969 64.660156 70.503906 64.375 L 69.980469 63.511719 C 69.273438 62.375 68.492188 61.28125 67.652344 60.265625 C 67.441406 60.007812 67.238281 59.75 67.015625 59.503906 L 66.363281 58.761719 C 65.921875 58.28125 65.464844 57.796875 65.003906 57.347656 C 64.082031 56.421875 63.125 55.546875 62.148438 54.695312 C 61.167969 53.851562 60.164062 53.054688 59.152344 52.265625 C 58.148438 51.484375 57.105469 50.730469 56.09375 50 L 53.160156 47.804688 L 51.6875 46.722656 L 51.320312 46.449219 L 50.960938 46.15625 L 50.246094 45.585938 L 48.824219 44.441406 C 48.347656 44.0625 47.851562 43.699219 47.402344 43.300781 L 46.019531 42.121094 C 45.796875 41.925781 45.550781 41.726562 45.332031 41.539062 L 44.6875 40.960938 L 41.21875 37.851562 L 41.613281 42.496094 L 41.6875 43.367188 C 41.714844 43.660156 41.730469 43.972656 41.742188 44.265625 L 41.851562 46.082031 C 41.890625 46.6875 41.886719 47.300781 41.90625 47.90625 L 41.964844 49.734375 L 42.007812 51.109375 L 42.007812 51.566406 C 42.007812 51.566406 41.980469 53.394531 41.980469 53.394531 L 41.980469 54.886719 C 41.980469 54.886719 43.03125 55.21875 43.03125 55.21875 C 44.273438 55.585938 45.496094 55.945312 46.71875 56.359375 C 46.800781 56.386719 46.882812 56.414062 46.96875 56.449219 L 47.003906 53.410156 L 47.003906 51.503906 C 47.003906 51.503906 47.003906 51.027344 47.003906 51.027344 L 46.984375 50.550781 L 46.941406 49.59375 C 46.941406 49.503906 46.933594 49.414062 46.929688 49.328125 C 46.996094 49.382812 47.0625 49.4375 47.132812 49.492188 L 47.871094 50.097656 L 48.238281 50.394531 L 48.617188 50.679688 L 50.140625 51.824219 L 53.207031 54.074219 L 56.195312 56.203125 C 57.171875 56.925781 58.136719 57.640625 59.066406 58.394531 C 60.003906 59.136719 60.925781 59.898438 61.800781 60.703125 C 62.675781 61.496094 63.523438 62.308594 64.328125 63.164062 C 65.132812 64.007812 65.867188 64.90625 66.566406 65.824219 C 67.265625 66.734375 67.855469 67.714844 68.414062 68.707031 C 68.957031 69.707031 69.382812 70.757812 69.757812 71.832031 C 70.082031 72.914062 70.355469 74.027344 70.476562 75.171875 C 70.53125 75.457031 70.53125 75.742188 70.550781 76.035156 C 70.566406 76.328125 70.605469 76.613281 70.589844 76.90625 C 70.578125 77.484375 70.597656 78.070312 70.539062 78.660156 C 70.511719 78.953125 70.496094 79.246094 70.460938 79.546875 L 70.332031 80.429688 L 70.273438 80.871094 L 70.175781 81.3125 L 69.988281 82.199219 C 69.84375 82.785156 69.667969 83.367188 69.511719 83.960938 L 68.914062 85.703125 L 68.222656 87.429688 C 67.964844 87.996094 67.699219 88.566406 67.457031 89.144531 C 67.855469 88.660156 68.242188 88.171875 68.636719 87.667969 C 69.011719 87.15625 69.371094 86.632812 69.730469 86.109375 C 70.0625 85.574219 70.386719 85.023438 70.714844 84.464844 C 71 83.890625 71.3125 83.328125 71.570312 82.730469 C 72.078125 81.546875 72.546875 80.3125 72.832031 79.023438 C 73.007812 78.382812 73.101562 77.722656 73.203125 77.0625 C 73.265625 76.734375 73.265625 76.402344 73.308594 76.0625 C 73.328125 75.730469 73.375 75.394531 73.359375 75.054688 L 73.359375 74.042969 C 73.359375 73.703125 73.320312 73.367188 73.300781 73.027344 " fill-opacity="1" fill-rule="nonzero"/><g clip-path="url(#5d2efef870)"><path fill="#41733f" d="M 65.058594 35.101562 L 64.742188 35.910156 C 64.632812 36.183594 64.507812 36.464844 64.386719 36.742188 L 63.675781 38.414062 C 63.445312 38.972656 63.160156 39.523438 62.90625 40.074219 L 62.140625 41.734375 L 61.761719 42.566406 L 61.5625 42.980469 L 61.351562 43.382812 L 60.519531 45.015625 L 58.875 48.292969 C 58.679688 48.660156 58.488281 49.035156 58.292969 49.414062 C 58.945312 49.890625 59.589844 50.367188 60.21875 50.859375 C 60.886719 51.375 61.582031 51.925781 62.289062 52.511719 L 63.273438 50.660156 L 65.011719 47.273438 L 65.867188 45.566406 L 66.078125 45.136719 L 66.273438 44.703125 L 66.667969 43.832031 C 66.703125 43.75 66.734375 43.667969 66.777344 43.59375 L 66.777344 30.769531 L 65.058594 35.109375 " fill-opacity="1" fill-rule="nonzero"/></g></svg>